/* XPM */
static char *_64bed136fb3460197f9359d6ef4f3c1oTVOXrjnH8IvKVAs[] = {
/* columns rows colors chars-per-pixel */
"64 64 161 2 ",
"   c #272624",
".  c #363333",
"X  c #3A3635",
"o  c #3C3837",
"O  c #3E3A39",
"+  c #423D3C",
"@  c #44403F",
"#  c #28415A",
"$  c #2E4962",
"%  c #2F4D6D",
"&  c #374E65",
"*  c #324E6E",
"=  c #394E69",
"-  c #34516E",
";  c #3C546E",
":  c #2E4E71",
">  c #314F71",
",  c #3A4E76",
"<  c #2E5270",
"1  c #355374",
"2  c #395675",
"3  c #375877",
"4  c #3A5877",
"5  c #365579",
"6  c #395679",
"7  c #365A7D",
"8  c #3C5A7C",
"9  c #464141",
"0  c #4A4444",
"q  c #4D4C4A",
"w  c #575251",
"e  c #5E5A59",
"r  c #42566D",
"t  c #455C75",
"y  c #415E7D",
"u  c #44607E",
"i  c #4B6179",
"p  c #54667D",
"a  c #797876",
"s  c #375A80",
"d  c #3E5D81",
"f  c #3F6082",
"g  c #415E81",
"h  c #446284",
"j  c #496586",
"k  c #46658A",
"l  c #49668A",
"z  c #4B6A8C",
"x  c #4D6D92",
"c  c #517095",
"v  c #5D779A",
"b  c #5F799E",
"n  c #63768C",
"m  c #637897",
"M  c #6F7F93",
"N  c #617B9E",
"B  c #6A7D9C",
"V  c #5F7CA2",
"C  c #647EA3",
"Z  c #6B819B",
"A  c #788596",
"S  c #71829C",
"D  c #6681A5",
"F  c #6983A6",
"G  c #6F89A6",
"H  c #6583AA",
"J  c #6B85AA",
"K  c #6E88AC",
"L  c #7084A4",
"P  c #758BA5",
"I  c #7B8EA5",
"U  c #728CAE",
"Y  c #7B8EAA",
"T  c #7590AF",
"R  c #7C92AB",
"E  c #6E87B0",
"W  c #6D8AB0",
"Q  c #748EB1",
"!  c #7691B2",
"~  c #7A94B5",
"^  c #7C99B7",
"/  c #7692BC",
"(  c #7D96B8",
")  c #7E9ABA",
"_  c #8E8A89",
"`  c #989393",
"'  c #8092A6",
"]  c #8495AC",
"[  c #8C9BAD",
"{  c #8496B1",
"}  c #8799B2",
"|  c #8C9AB4",
" . c #819BBC",
".. c #9CA7B3",
"X. c #95A4BA",
"o. c #99A6B9",
"O. c #99AABB",
"+. c #AFAEAC",
"@. c #A2ADBF",
"#. c #84A1C1",
"$. c #A6B4C7",
"%. c #A5B8C9",
"&. c #A8B8CE",
"*. c #B5C5D4",
"=. c #BDC6D1",
"-. c #B4C5D9",
";. c #BFCDDA",
":. c #D3CFCE",
">. c #C6D4E4",
",. c #CDD6E2",
"<. c #CBDBE4",
"1. c #CFDCEB",
"2. c #D6E0ED",
"3. c #D8E2EF",
"4. c #D7E2F3",
"5. c #DBE5F2",
"6. c #DBE7F5",
"7. c #EAE9E7",
"8. c #EEEDEB",
"9. c #F1EFED",
"0. c #F2F1EF",
"q. c #F8F3EE",
"w. c #FAF9EF",
"e. c #E0E7F3",
"r. c #E2ECF4",
"t. c #E6EEF7",
"y. c #EFEEF2",
"u. c #E1EFF9",
"i. c #E3F0F4",
"p. c #ECF2F5",
"a. c #E7F1F8",
"s. c #EBF3FA",
"d. c #EEF4FB",
"f. c #EEF9FB",
"g. c #F4F3F1",
"h. c #F5F4F2",
"j. c #F6F5F2",
"k. c #FBF5F4",
"l. c #F8F7F4",
"z. c #F5F9F7",
"x. c #FCFCF3",
"c. c #F9F8F6",
"v. c #FBF9F7",
"b. c #FBFAF7",
"n. c #FDFAF6",
"m. c #FFFBF6",
"M. c #F3F6FB",
"N. c #F0F7FC",
"B. c #F9F7F9",
"V. c #F7FAFA",
"C. c #F5FBFD",
"Z. c #F7FBFD",
"A. c #F0FDFF",
"S. c #F6FEFF",
"D. c #FBFBF9",
"F. c #FCFBF9",
"G. c #FCFCFA",
"H. c #FDFCFB",
"J. c #FAFBFD",
"K. c #FAFEFE",
"L. c #FFFEFC",
/* pixels */
"8 6 2 8 2 1 8 8 1 2 D.G.D.+ 9 9 0 9 + G.F.c.^ ^ ! ^ Q ~ ! ^ ! ! ! ~ Q Q K U J C U F c.k.G.+ + 9 + + + c.L.m.1 8 g h z y 8 8 8 z ",
"1 8 8 1 8 h 1 1 2 8 G.G.F.F.+ 9 + F.G.D.c.D.! ^ ! ( Q J ^ ~ ^ U ! ! ~ J F F F K J ! L.F.c.D.+ + + + G.G.G.G.1 8 1 1 d 8 2 2 1 z ",
"h 8 8 h 1 2 j 1 2 M G.G.D.L.L.G.G.F.G.F.c.F.I ^ ^ U Q ! ! ^ ! ~ ~ Q Q ! U Q K Q D Z D.D.G.c.D.:.G.F.G.G.G.c.n g 1 4 8 6 y l 1 8 ",
"1 8 1 g j - 8 y 4 F.F.G.G.D.D.G.G.G.D.D.D.G.G.^ ! ! ! U ~ U U Q U U Q K Q J Q J K D.c.c.k.c.c.G.F.G.c.D.D.G.G.* 6 2 8 8 8 y g h ",
"8 h g j 8 h 8 y 5 G.L.G.F.G.G.G.D.F.D.c.F.L.c.( Q ! ! ! ! Q Q ! L Q Q J U U J J K D.c.D.G.D.G.F.F.c.F.G.c.c.F.h 1 1 1 h h 2 z z ",
"d y 2 l 2 1 1 8 S.G.G.L.F.F.N.H @.G.V.D.D.F.c.^ ~ K U ! ! ! Q ! U K Q ! Q K D D 2.c.D.c.c.F.,.V L F.F.G.D.F.D.1 8 8 h c 2 % f h ",
"6 h 1 8 1 1 j 1 G.G.K.K.4.C J H D v D Z.F.L.F.c.! ! ^ ~ U Q ! ~ U ~ K J J Q J E m.c.G.x.[ F J F D J J m.m.D.G.L.k h h g 1 h h d ",
"6 6 d g 1 g ] G.G.L.Y D C C C D F C D C D F A.V.c.J./ ! ! ! ~ ^ L ^ Q F U D G.F.G.j.P J C D J K D F F K H e.D.G.m.h y 8 8 h f z ",
"1 8 u 1 K.G.F.F.' F J D D J C F C C C C J b F F k.G.j.L.~ Y ^ ^ U L Q d.g.c.j.D.J F K F J F D K D J C F J N D 6.F.c.c.t.s h 8 8 ",
"j = D.F.c.G.D.G.K J C C V D D D J C F F D D F D k.F.c.j.k.c.J.Q N.k.k.0.c.G.F.0.D K F C K D D K K J J J J F C F c.D.D.F.c.G.Z.l ",
"V.G.D.D.D.G.K.J Q J C F J C K K F C C D C D D F C c.c.c.D.F.k.D.k.c.F.k.F.j.G.C F J C J Q D C D K D K C C D C D c.D.F.G.c.G.D.G.",
"G.D.G.L.D.L.m.J Q Q J F C F D C J K F C C F C C C G.c.D.k.D.j.D.c.F.k.G.c.c.w.D D D K K C J J C J C D J K D F J B F.F.j.k.c.F.c.",
"G.D.G.L.D.J.P Q Q U U K F C J D J J F D F F C C C N j.D.j.j.g.k.D.g.D.G.c.g.P C J K J D C F C J F J J D D F J F D G.D.c.F.D.L.k.",
"+ L.F.D.L.m.K K F K F Q K D F K J C J K D F K b K F c.c.c.c.k.+ @ F.G.g.D.G.H J K C K C C Q J C C F K F F U J F F R c.c.D.j.m.O ",
"+ 9 G.G.G.] K K Q U F F C C J K F D J D D C F C C J d.j.c.j.@ + + + G.j.F.G.J J C C F K J b C D D D D K J C K J J J G.D.g.k.+ + ",
"+ + G.L.G.! U U J J U J F D J F K J F J C D J F C J D j.L.F.X + + O c.D.c.F J F D C F C C J K K F F J J J D Q Q K U i.D.c.F.+ 9 ",
"+ + G.G.F.! U U Q D U J K Q C D J F K C F C D J F F L c.k.k.X + O o c.c.c.W J K J C Q C C J D C b F K J F D D C J L g.g.j.D.@ O ",
"9 o c.F.F.c.J J Q K U F K J ! J K C J C C D K C C D g.c.k.c.O O + 7.k.g.F.z.C C D C C K J D J J Q C F b D K F J D H 9.g.c.g.` 9 ",
"e G.D.F.F.m.W Q J U K D N F K K D K C C U J J K D K k.j.j.g.0.a k.c.c.c.g.c.K J C C D J F F J D C N J F C K J K F k.k.j.g.j.k.c.",
"D.D.D.G.G.D.5.K K U U Q C F ! J D K J F K J K J D j.k.g.j.g.G.j.j.c.k.D.c.g.$.K Q J J D Q K C D C C F J K F J C K j.D.0.g.c.k.c.",
"D.D.F.F.D.G.F.J K K J F F K F D D K K J J D C F D k.g.8.j.0.G.j.c.c.c.j.g.F.g.K C K J D U C K C F F J J C D J F B g.c.c.k.g.D.g.",
"m.c.G.L.F.G.D.I U K J D J K D J D J K F J F F F 0.k.F.k.D.j.8.9.8.k.j.j.j.8.8.] J Q F F K J K C N U K D J K C F 9.0.g.k.k.g.j.j.",
") ^ Z.G.F.F.F.m.Q J J J K F F D D K C U J F C J B.g.g.0.j.M.8 j 6 r q.c.j.g.0.j.F F K K U D D C F K D K F D K K k.9.g.k.k.k.N ! ",
") ) ) Q K.G.c.F.! Q K K K D Q J F J J K J K C N.c.g.D...8 d 1 h 6 8 k 6 p.c.9.j.s.Q K J J K b K J D F K F D J D.g.F.8.3.J F F J ",
") ) ^ ! U ~ J.c.q.0.U K D U K K F K K J J q.g.q.g.y l 7 1 - 8 g 1 h 8 g 6 5 ; j.0.M.8.U Q D F D K K Q Q Z j.c.g.c.n N Q Q C C K ",
") ( ^ ! ! ! ~ U z.D.g.j.*.F F J J Q X.c.j.j.0.=.l h h h y 8 l h 1 2 h c y g j l M.j.k.0.q.N C K K J Z D.0.j.g.G U Q J U U K C K ",
"( ^  .Q ! ! ! Q ! G.g.c.j.L.9.m c.M.j.j.g.c.k.x h 8 1 8 8 1 z g g * 8 : h 8 6 1 < D.g.g.D.g.g.g.&.j.9.j.j.c.c.C J Q C K Q J J J ",
") Q U ~ U ! ! U L L.c.k.g.0.c.D.g.j.j.g.c.c.g.6 l 8 8 2 g h 6 8 1 j 8 1 1 h 1 h 1 a.0.j.0.k.g.0.g.0.8.g.0.j.M.J J Q C D K K F K ",
") ^ ! ^ U ! Q Q Q K D.k.c.j.k.g.g.k.j.k.c.c.$ d f 6 8 6 6 k h g h 8 h 1 1 8 8 6 z 7 0.0.g.j.g.g.0.9.0.g.k.k.F J U C U F K K J K ",
"^ ) ! U ~ ~ Q U K J B.c.k.F.c.F.j.k.0.j.c.c.4 1 j 8 1 g d 1 8 1 8 g 1 8 1 - 1 8 h 6 y.8.0.g.j.0.0.j.g.0.k.q.K F D J C F K C F D ",
") ^ ^ ! Q Q Q J Q Q U D.k.j.c.O O +.k.g.j.M.8 f 5 h 8 6 6 k j g h h 8 6 * g 8 6 h 8 k g.0.g.g.o . 9.0.0.0.1.K J F J F C Q Q U J ",
"( ( ( ~ U Q U Q U Q U B.g.j.+ X O . g.F.D.6 g g h d 6 6 h 2 1 h 6 2 8 8 8 k z x 6 z h 0.0.g.o O + + 8.0.D.K Q Q J J Q U C J K J ",
" .! ! ! U Q Q ~ U J Q q.j.g.O X X + c.0.j.8 k d k h 5 8 1 2 1 1 1 z 8 8 2 1 g z d x z <.g.j.+ O o O g.j.M.Q J K Q J K D D D H D ",
"^ ~ U Q ^ ! U Q K Q L D.g.j.O X + O g.j.k.n k h k j > g 1 1 8 * 1 8 8 h 1 8 h g 6 8 h q.0.j.O O + 0 8.g.M.J J J K J J D J K W W ",
"( ) ^ U ^ Q Q Q Q Q k.j.g.g.9.e 9 j.g.g.g.c.8 5 1 8 8 - 8 2 1 y h h 8 8 g h d 6 8 h 2 g.8.8.8.X ` 8.g.0.0.;.! Q J J K K F F J D ",
" .~ ) ! Q Q K U ! ! g.0.G.g.0.g.0.j.0.g.c.0.x l 8 1 8 2 2 2 2 * 1 1 8 8 1 g 6 h 8 8 g.j.g.0.8.g.8.g.8.0.7.0.J F Q Q J Q J K J C ",
" .~ U U U U ! U Q r.g.j.g.g.g.j.c.j.F.0.j.0.0.8 h 8 * 1 1 * 8 8 8 6 6 1 2 j 1 5 5 d g.8.0.7.0.0.7.8.j.8.8.g.S J K K J K J U C Q ",
" .^ ~ ! Q Q ! Q U g.g.j.c.j.k.0.F.G.0.c.c.9.k.8 1 - 1 j * 1 1 1 j 8 8 8 8 h 8 k k M.8.0.j.8.8.g.0.8.7.8.g.g.q.J D K K Q J K J D ",
") ^ ~ ! ~ U U Q r.c.D.0.j.9.P J F F k.j.k.j.g.g.; 8 6 2 g 8 g h 1 8 1 h 1 1 6 k x q.9.0.7.7.S K J >.0.g.0.0.9.I K ! K J C K J K ",
"( ^ ^ ! U U Q k.c.j.g.Z.H F Q U U K K U j.q.0.0.t 8 8 1 h 8 j 5 8 j h 2 8 6 k O.j.8.j.s.D J ~ J K K U P w.8.j.9.Q K U J C U K J ",
" .^ ! ! o.m.G.D.c.P K K K J K F K K F F J K Z.9.g.j.f.6 8 8 6 h 1 h h d t g.9.g.q.| F F C F J K Q K Q F U U t.g.g.0.M.W J K U U ",
" .) Z.D.L.c.k.D.W ! U K J K J K K K K U K J J K M.0.c.g.q.p : 6 8 h p.g.0.8.g.g.F F C N F J Q K K Q ~ K U K Q L g.j.g.g.q.&.K U ",
"G.D.k.k.c.D.G.G.U K K K K U D Q ~ N F Q U U F D r.k.g.g.g.0.k.g.q.0.0.g.0.j.0.q.J ! K J Q K U J Q Q U Q ! U Q J j.j.g.j.j.j.y.j.",
"D.D.D.c.L.j.G.P Q Q Q U U U F U Q K K J J J J C J g.k.c.g.c.g.9.0.0.g.0.g.0.8.o.K K J F K J C J U F ~ K Q U J Q ;.0.k.j.g.g.j.g.",
"D.k.L.G.c.c.m.U U K U K U J Q K K F F U U J F K U | g.c.j.g.k.j.j.0.g.k.0.j.7.! U U D F U J Q F / K U ! U K Q U Q j.g.g.0.0.0.g.",
"_ c.F.k.c.k.] ^ U ^ ! ! ~ Q Q Q K J K J K Q U D U J j.g.g.j.0.j.q 8.0.8.g.9.p.U Q U Q D U K U J Q K Q U Q Q U ! Q 5.j.g.j.g.k.q.",
"+ O G.c.c.c.! ! ! ! ! ! K ~ K U K K Q D U J F K U F X.8.8.8.8.+ O . g.9.j.g.U K Q U U K U ! U U Q ! U ! U Q K U Q Q j.j.g.j.O O ",
"+ + L.c.k.N.! ^ U ! ^ J U L K U U J J U U U Q Q J K K 0.0.c.X + X + . g.0.9.Q U ! ! ! Q Q J F U ! U K L U J Q K U Q M.D.g.0.+ 9 ",
"+ + g.D.G.-.^ ! ! U ! ~ U ! T J U U Q K U J U U U N ! z.j.g.O . X + X g.g.A Q U U ~ ^ ~ K U Q U U Q K ! U U ! Q ! J Q j.g.j.+ 0 ",
"+ + c.c.F.m.~ ^ ! ^ U Q U Q Q ! U ^ Q U U K ! Q ~ ^ ~ g.j.0.O + O X X 8.0.j.U Q ! ! ! K ^ U U U ! U ! U Q ! Q Q Q U k.j.j.0.0 + ",
"9 D.L.F.F.G.~ ^ ! ^ U ^ Q ( U Q ! ^ ~ U ! U ~ F Q ~ M.g.g.g.0.  O 7.j.k.0.g.[ U Q ! U ! ! ! L ~ ! ! ! U ! K U K Q R k.k.j.D.j.+ ",
"F.k.k.F.c.G.k.( ! ^  .! ^ ~ ~ ^ ! ! Q ! U U L U ! ^ g.g.c.g.0.k.g.g.g.c.0.8.q.U ! U ^ ! U ~ U Q ! ^ ~ U Q Q U U U j.k.c.j.c.G.j.",
"D.c.G.j.G.D.L.^ ( ! ! ^ ^ ~ ( ^ ~ U ! ! ^ U ^ ! ! 3.k.G.j.k.j.g.g.j.g.0.g.8.0.~ Q ^ ~ U ! ^ Q ~ ! ! Q ! U U Q U R j.k.j.k.g.j.g.",
"G.D.D.D.D.G.D.S.~  .^ ^ ( ( ! ! ! ~ ^ ^ ! Q ! ! ! M.8.k.g.F.g.g.g.D.g.j.0.g.g.0.G ( ^ ^ ! U ^ ^ ^ ~ ! U ~ ! ~ ! j.g.k.c.D.c.D.m.",
"8 d S.F.c.c.F.j.) ^ ( ^ ^ ! ~ ( ~ ! ! ! ^ Q ! Q %.0.j.c.j.0.M.! U ] j.8.g.c.0.k.! ! ( U ! ! ^ ! ^ ! ~ U Q ! ! ! k.j.D.F.c.c.- 8 ",
"4 1 l z # m.J.D.g.~ ) ^ ^ ) ! ! ! ) ! ^ ! ^ U Q q.j.j.m.{ ^ U Q L ! U Q I G.g.g.j.! ^ Q ^ ~ ^ ! ! ! ! ^ U ^ 6.j.9.B.9.& 4 3 1 1 ",
"8 8 d 2 4 8 1 Z.k.D.F.R ( ^ ~ Q ^ ! ! ! / u.g.j.D.N.T U U ! ! ^ ! ^ U ^ ~ ! ~ a.g.g.0.X.( ^ ! ^ ^ ! U Y 0.g.j.j.p 6 1 1 1 % 2 8 ",
"* 6 y - 2 8 h 1 , F.F.G.F.Z.^ ! ^ ( } c.D.0.j.D.M.J ^ ^ ! ^ ! ~ ^ ! ~ ~ ^ ^ ^ ) e.j.g.g.g.X.) T ! S.g.g.j.k.g.1 2 y 4 h 8 1 1 8 ",
"8 1 k - - 1 8 g 1 c.D.j.c.G.G.g.D.g.g.c.k.k.c.k.L ! U Q ^ ! ^ ! ! ! ! ^ ~ ~ ~ ~ / g.g.9.k.j.k.k.k.D.k.0.g.F.q.k 8 1 1 h 8 8 5 h ",
"d 6 8 2 1 l h h y F.G.G.G.F.G.c.G.F.j.k.g.D.k.g./ ^ ! ~ U Q ! ! ( ~ ~ ^ ) ! ) ~ ! k.g.k.k.g.c.k.F.c.k.k.j.c.Z.h 1 5 z h j 8 1 6 ",
"h 8 % 8 1 5 6 d 1 p c.D.F.F.c.c.F.c.j.G.c.c.j.^ ! ^ ! ^ ^ ) ( ( ! ( ! )  .( ) ^ ) s.c.D.c.k.j.c.D.k.k.G.k.c.i h 8 1 1 8 g 8 6 l ",
"y 1 2 5 1 8 h g 1 k F.c.G.F.k.+ + D.D.k.G.j.q.!  .~ ^ ! ^ ^ ( ^ ! ^ ^  .^ ~ ( ) ~ ) c.c.j.c.D.w F.c.j.c.k.G.1 4 1 1 8 6 - 8 1 k ",
"6 1 6 * 1 h 8 8 h l F.k.c.k.O O @ + c.c.F.D.(  . .^ ^ ) ( ( #.)  .( ) ) ) #.) ) ) ) F.D.g.j.9 9 + 9 G.c.F.k.x l h 2 6 2 l 2 g 8 ",
"z 8 > 8 6 j z 1 k 6 z.0.k.+ + + X O @ c.c.m.) )  . . .~ ) ) ) ) ^ ) ) )  .)  .) ) ^ j.k.D.@ + + @ + + g.G.K.8 % g z 4 * 6 - 8 y "
};
