/* XPM */
static char *_1905303868b40e6bbca58ace96d17c13evSwYtArsKd4ZUG[] = {
/* columns rows colors chars-per-pixel */
"64 64 181 2 ",
"   c #69737F",
".  c #6E7484",
"X  c #65768C",
"o  c #68778A",
"O  c #677B8F",
"+  c #6B7A8C",
"@  c #747B8D",
"#  c #7B7D89",
"$  c #657991",
"%  c #6D7E95",
"&  c #6F7F98",
"*  c #717F93",
"=  c #74808C",
"-  c #79828B",
";  c #6E8196",
":  c #6D829A",
">  c #728296",
",  c #7C8493",
"<  c #7A8895",
"1  c #73859B",
"2  c #7A869B",
"3  c #76899E",
"4  c #7A8A9D",
"5  c #6F87A1",
"6  c #7687A0",
"7  c #7689A2",
"8  c #7B8CA3",
"9  c #768EA8",
"0  c #7D8EA9",
"q  c #7E91A6",
"w  c #7D91AA",
"e  c #828B93",
"r  c #80869E",
"t  c #838E9C",
"y  c #888F9E",
"u  c #879097",
"i  c #899297",
"p  c #86939E",
"a  c #8B959D",
"s  c #8D9B9E",
"d  c #90979D",
"f  c #818EA3",
"g  c #888FA2",
"h  c #818EAA",
"j  c #888FAC",
"k  c #8292A5",
"l  c #8A95A3",
"z  c #8D9AA4",
"x  c #8394AB",
"c  c #8A95AC",
"v  c #8699AD",
"b  c #8A9AAC",
"n  c #939CA4",
"m  c #999EA3",
"M  c #939DAA",
"N  c #989EAC",
"B  c #8596B2",
"V  c #8A93B2",
"C  c #8699B2",
"Z  c #8B9CB2",
"A  c #929FB0",
"S  c #909EB8",
"D  c #97A1A5",
"F  c #9BA1A4",
"G  c #95A1AC",
"H  c #9AA4AD",
"J  c #9EA8AE",
"K  c #8EA1B6",
"L  c #93A3B4",
"P  c #9BA6B1",
"I  c #9DAAB3",
"U  c #93A4BA",
"Y  c #97A8BC",
"T  c #9CACBA",
"R  c #A1A2A4",
"E  c #A2A6AC",
"W  c #A4AAAE",
"Q  c #AAAFAE",
"!  c #ACB1AA",
"~  c #A2ACB4",
"^  c #AAAEB4",
"/  c #A3AEB9",
"(  c #ACB1B4",
")  c #A6B1BB",
"_  c #ABB4BC",
"`  c #ACB9BF",
"'  c #B2B6B5",
"]  c #B5BAB6",
"[  c #B1B5B9",
"{  c #B3BABC",
"}  c #BABCBB",
"|  c #BCC0BD",
" . c #CDC3B7",
".. c #CFC7BC",
"X. c #D2C4B7",
"o. c #D3CABD",
"O. c #D9CCBB",
"+. c #DFD0BD",
"@. c #A5B2C3",
"#. c #AAB6C1",
"$. c #ADBAC3",
"%. c #A5B8C9",
"&. c #B2BCC5",
"*. c #B8BDC3",
"=. c #B4C1C5",
"-. c #BCC1C3",
";. c #B7C2CA",
":. c #BDC5CA",
">. c #C4C4C3",
",. c #C7C8C4",
"<. c #C2C6CA",
"1. c #C3C9CD",
"2. c #CBCDCD",
"3. c #D6CEC1",
"4. c #D9CFC3",
"5. c #CDD2CA",
"6. c #D7D1C4",
"7. c #DBD3C5",
"8. c #DCD6CA",
"9. c #DEDACD",
"0. c #C0C9D0",
"q. c #C9CED1",
"w. c #CDD3D5",
"e. c #CFD4D8",
"r. c #D3D6D3",
"t. c #D8D5D0",
"y. c #D4DCD4",
"u. c #DCDCD4",
"i. c #D1D6DA",
"p. c #D5DBDB",
"a. c #DCDDDA",
"s. c #E1D6C4",
"d. c #E1DBC7",
"f. c #E2DCCD",
"g. c #E2DED2",
"h. c #E8DFD0",
"j. c #E0DFDA",
"k. c #DEE1D3",
"l. c #D7E0DF",
"z. c #DDE3DD",
"x. c #E2E1CF",
"c. c #E5E2D5",
"v. c #E9E3D5",
"b. c #E5E9D5",
"n. c #EAEAD7",
"m. c #E6E5D9",
"M. c #E9E6D9",
"N. c #E9E6DA",
"B. c #E9E7DB",
"V. c #EAE7DE",
"C. c #E5EADB",
"Z. c #EAE9DB",
"A. c #E9E8DD",
"S. c #E8E8DE",
"D. c #ECEADE",
"F. c #EDEBDF",
"G. c #DBE0E3",
"H. c #DCE2E3",
"J. c #DEE9E5",
"K. c #E2E4E2",
"L. c #E6E5E0",
"P. c #E9E6E1",
"I. c #E4E9E2",
"U. c #EBEBE1",
"Y. c #EAEAE2",
"T. c #EDEAE1",
"R. c #ECECE2",
"E. c #EFECE3",
"W. c #EFEFE7",
"Q. c #E4E5E8",
"!. c #E4EAEB",
"~. c #E3EBEE",
"^. c #EBEEE9",
"/. c #F1EEE3",
"(. c #F0EDE4",
"). c #EDF1E3",
"_. c #EFF1E9",
"`. c #F1F1E6",
"'. c #F2F2EA",
"]. c #F3F3EB",
"[. c #EFF2F3",
/* pixels */
"4 =.&.&.1.W.W.W.W.A.T.~ 1 D.T.V.R.A.p.q B.D.A.B.A.A.Z.V 1 x 8 P q P / / #.c.m.c.m.A.c.c.7 i.c.m.u.c.c.5 e g.g.g.g.g.9.g.1 3 % > ",
"L k ;./ :.-.R.R.W.A.R.x 8 q T.m.(.l.8 x U.D.A.R.R.c.q Z 7 k $.P x 1 M &.P $.v.m.c.B.c.m.6 x G.c.Z.x.7 v 1 c.c.c.c.g.g.8 7 1 > ~ ",
"U x ^.].W.R.W.V.U.(.m.7 C 3 U /.0.8 1 8 4 m.T.A.A.m.L.L.L.) H I 8 7 x m.V.U.P.m.B.c.B.7 8 x Z H.B.q 1 1 4 m.c.B.g.B.K.a.a.r.p ~ ",
"k x ^.W.].W.W.U.A.T.x q 7 1 8 q 8 7 7 1 k m B.D.A.D.A.B.B.&.) &.x x 8 D.D.m.m.c.m.c.y.1 k 8 1 q 4 x x k 1 1 f.g.g.g.c.9.c.9.H P ",
"~.Z ^.W.W.W.R.A.H 1 8 k f U.U.R.R.V.:.1 v 7 l A.B.A.A.A.c.N / c.B.8 k D.D.A.A.m.c.4 8 x 8 t B.Z.B.B.u.2 7 1 C a.c.B.B.9.c.8.H ~ ",
"_.~._.U.].Z U 0 1 C U , R.D.R.T.A.B.A.Z.0 L C 8 q b R.B.B.~ c.c.B.Z.C m.A.m.k 1 q 1 k k m.g.c.c.m.c.c.c.< x > 1 7 t < 7.g.9._ f.",
"].].].U.W.x 8 C 7 1 1 A.T.T.A.V.`.B.A.A.a.k v K x 8 U.B.A.B.A.m.D.c.Z.B.D.B.8 7 1 x 1 ^ c.B.B.g.c.B.c.c.A.7 3 k 7 8 8 g.c.9.f.f.",
"].W.].W.A.C v 1 x 3 ^.R.A.U.W.D.T.V.B.D.V.8 7 8 K C ~ A.A.B.D.B.A.D.B.B.c.m.8 % 8 x 8 b.c.c.c.B.c.B.9.g.m.C.k 8 8 7 k 9.g.9.g.8.",
"W.].U.].[.U 8 1 7 K A.R.`.T.T.W.R.R.A./.m.p k b x L k Z.B.B.m.A.D.m.A.c.B.k 8 1 C C C c.c.c.B.B.B.g.c.m.c.g.1 7 1 1 1 t c.g.9.7.",
"`.].W.].x U k k 3 b D.`.`.!.T.V.`.C.| (.B.w.Z Y k Z % n B.B.D.D.B.B.B.m.I.x 8 1 q 6 4 m.c.m.g.c.c.c.D.9.c.B.1 8 v 1 1 B d.g.g.7.",
"R.W.U.K x x x U.U.A.A.T.B.7 I.V.A.~ -.m.(.B.D.P.l k x k e A.D.D.D.m.B.w.7 1 v > m.c.B.m.m.a.8 v.g.c.G g.c.c.c.c.' b x 8 x 9.g.8.",
"D 8 v x 8 t R.A.`.A.A.`.`.8 ; !._ H -.A.A.B.R.B.A.Z.8 8 1 3 H A.U.E x 1 8 x a.c.B.c.c.B.c.Q.1 w c.) $.g.c.g.g.g.c.f.c 1 Z 1 8 t.",
"8 7 8 Z S A.R.A.R.A.A.(.A.3 x q ;.&.,.T.m.V.T.V.B.D.c.C v k 1 , ~ % x 1 x i.B.m.Z.c.c.c.m.a.8 8 / / M g.c.c.B.g.g.g.f.1 1 7 8 8 ",
"(.x x k R.R.W.R.R.H._ ) / k 8 7 P / C 1 q Z D.c.D.A.D.< x x n A.R.m x 8 q A.B.A.B.B.G / P H 7 8 P / P x 1 Z M g.9.9.g.x.6 1 1 9.",
"W.`.x 8 W.].A.R.R.U.p.&.) #.k 1 #.x x C 8 B.A.A.B.B.m.A.Z ~ m.m.c.B.e q <.Z.A.c.c.B.c./ z G ) 7 L b : 1 k , c.c.c.9.g.g.4 1 u.g.",
"W.].D.L R.U.A.A.A.R.(.y.#./ / 4 7 q 7 C T.T.R.A.R.D.D.Z.H A.m.m.B.B.B.m m.D.m.m.B.D.c.f.I I _ ) / 7 k q f c.g.g.B.B.c.B.l v.g.9.",
"].W.J.k W.W.R.W.U.A.B.3 1 q k $.#.$._ ~ I.D.D.A.A.A.D.D.C B.B.A.D.D.B.4 c.A.A.m.B.c.c.B.0 1 1 f > ) n / / f.c.c.m.g.9.g.t a.9.9.",
"W.J.U 8 ].W.R.U.U.m.1 C 1 x =.) 8 #./ ) &.U.D.B.D.c.D.~ x 0 B.A.A.m.2 1 -.B.m.c.m.D.B.7 k 7 4 I q 1 D ) I N c.9.c.c.B.9.1 x 7.c.",
"w.0 8 0 [.W.W.U.U.i a z a / I _ ; 3 #.{ :.:.A.A.R.B.m.k 7 8 h Z.B.* q x 0 Z.c.c.c.R.k , b 4 / &.k ; % ~ P &.~ g.B.g.c.9.7 4 8 8.",
"%.q v k 7 (.A.W.A.D.A.R.T.$.&.G Z 3 :.D.D.D.R.A.B.m.< k k x 7 h c 1 7 v 7 u B.B.c.c.c.c.c.a.D n k 7 k f.c.c.c.B.B.g.v.% 7 8 1 7 ",
"`.^.8 v 8 8 ).`.R.U.R.U.W.P P D.n 8 { T.B.m.m.D.c.l 8 7 x l A.Z.c.c.l 1 7 1 , m.B.A.A.Z.B.m.$.N B.3 8 B.c.g.c.g.g.c.8 % 8 8 H 8.",
"].W.`.P x Z 7 v G -.U.R.R.I R.V./.H -.D.R.A.m.M 8 Y 3 8 Z.D.R.m.A.B.A.k.: 3 8 q z K.m.A.B.j.n g.c.9.v c.g.B.V.u.t 7 8 % > f.g.9.",
"].W.W.`.Z 8 k x 1 8 A.V.A.T.A.D.D.V.U.D.A.t 8 T x k x m.c.m.D.A.m.A.B.B.m.q > 7 q C , B.c.c.c.c.c.9.c.9.g.m.7 8 1 1 % q f.9.g.g.",
"R.].R.A.^.Z 8 7 x q R.B.R.D.B.m.R.D.R./.A.8 v Z k x l A.B.m.c.Z.R.A.B.m.B.x v k 4 8 1 c.m.c.9.c.B.c.c.c.B.c.3 k 1 4 % u.g.c.c.9.",
"U.`.].`.W.x q v 8 7 n B.A.D./.R.V.R./.m.n.q v k 8 C A.A.B.A.B.B.D.c.m.B.c.c.8 8 x 1 1 B.c.g.c.c.g.c.B.g.g.w.1 7 k 1 7 c.g.g.g.f.",
"R.`.R.W.R.x q v 8 8 7 m.T.R.D.A.A.T.D.A.M x C k x v D.D.B.k.B.B.A.D.A.D.B.B.3 ; 8 v k t B.c.u.c.g.B.g.g.v.3 1 8 8 8 6 9.c.B.f.f.",
"R._ `.A.U.U.U.m Z q 8 w n.B.D.D.D.A.m.I q q x L D C.B.A.A.8 m.c.A.c.G m.D.Z.m.) 8 1 x 8 m c.B.c.c.c.c.B.q 1 4 8 k p <.g.c.d.8 h.",
"~ ) W.`.U.R.A.R.B.8 C Z x 4 R.B.c.K.k v 1 8 K.A.D.D.R.A.A.8 9 C.A.Y T m.A.A.B.B.c.K.w 1 4 k A.m.c.B.K.% 8 1 x x.c.g.7.g.c.f.1 8 ",
":.&.W.`.R.`.W.R.A.A.7 8 Z 7 8 i q 7 1 8 8 b.A.R.D.D.R.B.A.v 7 1 G G _ D.D.B.c.B.B.m.c.0 8 8 k x = : 8 x 1 : f.9.c.9.9.u.g.v.8 % ",
"J / x C 8 q R.A.W.D.R.0 7 8 W A.A.7 Z 8 t D.m.m.B.! { :.( v 1 ; G _ @.8 l b y A.B.B.c.n 8 8 8 m.m., 1 8 % x.g.g.g.g.^ } ( ^ 8 % ",
"#.C 8 v x A.U.R.R.R.B.q 8 ( A.D.A.B.w 1 B.D.`.B.D.B.^ _ I #.8 1 M A x 1 7 c D.B.c.D.c.A.k x u.c.c.B.2 8 : c.B.c.g.g.v.D / P l 1 ",
"L k 8 8 R.`.A.R.R.D.D._ { /.B.D.D./.B.8 R.A.B.A.D.D.B.W _ / M 1 T 7 x x 2 c.c.D.B.A.c.9.8 m.c.c.c.c.f.g p c.g.c.c.c.g.f.M #.z l ",
"H ` / -.R.R.R.W.A.R.A.1.R.A.A.D.D.R.m.b A.B.B.D.B.R.A.V.3 x 8 1 s G a n V.B.A.c.c.m.c.c.4 A.B.g.c.B.g.g.2.c.g.c.c.9.g.g.5.7 % 1 ",
"Y H P :.^ A.T.R.A.B.B.< w D.m.R.D.D.x 1 D.Z.B.A.D.R.g.K 7 7 k D 8 Y N D P m.B.g.m.c.B.A.k 2 g.c.c.g.g.: 4 c.9.g.g.g.7.z.k x 8 l ",
"x 8 ( &.:._ R./.R././.: q 8 c.A.c.w 8 1 ^.D.A.m.A.c.3 8 C 8 _ ) Z 1 G I $.I m.Z.B.m.c.u.1 1 , c.c.g.8 1 x g.c.g.7.g.z.k k 1 b p ",
"Z C W.U.W.U.W.D.D.B., 8 1 q 8 D.8 x 1 1 > c.A.m.D.V.D.Z.D.P &.P % 3 8 c.B.Z.B.B.B.c.n.k k 7 6 g c.w 1 1 4 q.c.c.g.9.g.g.f.f.I ~ ",
"C 8 U.W.A.R.D.R.B./ 8 x 1 % _ U.1.x x 3 k k Z.D.D.Z.D.c.A.~ / ( a x x A.B.B.c.m.Z.B.3 3 3 8 % a -.% x 1 x k k.c.c.c.B.B.g.7.H H ",
"T.Z W.R.A.R./.U.x v 1 v I.T.D.B.A.c.c.1 1 8 3 U.m.D.Z.A.R.H Q B.V.n 6 c.Z.c.c.B.Q.1 q 1 1 c.g.g.c.g.d.a % > > l g.c.g.g.c.c.) r.",
"`.(.].R.R.3 1 8 8 q x m.B.A.D.A.A.m.B.B.8 1 C 8 3 x m.B.c.d D.Z.m.R.t B.A.Z.> k 1 7 1 8 B.c.D.B.c.c.B.g.2.% 4 x 8 > 7 9.g.9.a.g.",
"R.A.R.W.T.w 7 8 8 8 l A.R.A.D.R.m.A.R.D.c.7 8 C v 4 D.m.D.B.c.B.Z.m.B.c.Z.c.8 % k 1 1 c.c.c.g.c.B.g.g.g.g.1 x x 8 8 % 9.c.c.6.f.",
"W.A.`.W.U.C 8 k 1 k R.D.A.B.D./.m.R.R.B.D.7 8 1 Z k W D.c.m.c.B.c.m.D.B.B.^ 3 3 % 1 1 c.c.c.g.c.c.g.9.c.9.c.1 % 1 1 1 f.c.B.g.g.",
"W.W.A.R.t 7 8 k x 1 D.A.D.B.R.B.A.A.B.A.D., Z 1 1 8 7 c.m.c.B.c.B.B.D.A.v.7 8 1 8 1 p c.c.B.c.g.c.B.c.g.g.c.8 q Z 1 + l g.V.9.g.",
"R.(.(.*.8 3 8 7 C 4 B.`.D.- B.B.Z.I.U.B.c.e 8 k q x 8 1 c.c.B.B.c.m.m.B.k 8 1 > Z 7 d c.B.~ d.B.c.c.{ g.9.c.x 1 v > 7 k g.c.g.v.",
"`.`.7 1 k 8 { D.R.B.A.B.D.1 H m.C.&.P.B.D.D./.V.Q.7 1 x 1 m.D.c.Z.Z.A.x 1 O 7 a.g.c.c.c.B.E 7 g.c.E H f.B.B.g.g.7.< % x Z W d.7.",
"q 8 k 3 8 C.R.A.A.R.A.D./.8 1 n I H ^.B.c.B./.Z.Z.D.3 C 4 8 ; x k x 1 4 k q B.c.c.c.u.c.B.[ 7 1 m P M v.c.g.9.g.f.g.p.k 1 8 O < ",
"f k 1 8 e.D.D.D./.R.].A.B.8 8 1 I _ ^.Z.v.Z.Z.A.B.c.C.1 x x : 9.c.8 ; 1 1 c.B.B.c.g.g.c.c.^ 1 8 l / P f.v.B.f.v.9.g.g.e % k % k ",
"D.c k x A.D.R.D.D.A.P n I T q x l L % 7 U M c.m.R.B.c.t k 8 b.c.c.b.w 1 l c.c.c.B.m.Q &.D ) ; 7 P z 4 7 1 4 m.g.9.B.g.d.0 % + g.",
"R.A.j < D.A.B.B.Z.m.L._ P G T k L k 3 x y g.m.Z.c.B.B.U.C b.m.B.m.Z.c.: u.m.A.B.c.c.c.F P H H 8 ) 4 k 1 q k.f.c.f.g.g.f.4 8 g.9.",
"R.A.P.*.D.D.A.R.B.Z.B.y.L L b b L 4 b l B.c.c.c.Z.c.D.c.b.m.B.B.u.Z.B.D.g.c.D.B.c.g.B.c.) T G I < % * 8 c.c.D.g.g.f.g.7.p f.9.g.",
"R.A.h 4 D.A.T.A.B.A.m.C : % < ) f #._ ` | D.m.D.A.c.B.L.; v.B.B.m.g.(.w B.c.c.c.g.B.g.n k 1 % G 1 _ G P T 8.g.9.c.g.g.g.o x 6.f.",
"/.x x 0 D.B.D.D.c.C.8 1 x k ` / 3 b $.&.) 2.A.B.D.c.c.4 C 1 c.m.c./.Z 7 ( g.g.B.B.B.e k 1 k L D C % M I P M c.g.9.g.f.8.X 1 t 8.",
"v 4 1 q p.D.m.c.A.V.B.B.Z._ / z 3 8 K.c.c.m.B.B.c.B.g.7 8 8 8 v.Z.1 1 1 8 c.c.B.g.m.c.u.u.q.H / 3 1 1 c.A.u.A.g.9.g.6.~ X 1 k @ ",
"x 8 v 1 q b.B.A.D./.A.B.Z.$.;.J 3 ; I.D.c.Z.Z.m.D.v.k k k k 8 : 7 x 1 1 8 8 c.9.g.g.g.9.c.>.H M 8 4 7 g.g.g.c.g.f.f.g.% % 2 1 x ",
"m.B.t C K Z a D.Z.B.B.D.g.z ' B.v.C I.c.m.B.c.c.I.v 8 k 3 V.v.c.c.B.a.7 7 k 1 g.B.B.g.9.g.} G m.8.; 8 8.g.g.g.9.f.:.1 x 1 t c.f.",
"B.B.B.G.K 8 Z 7 % 8 A.B.B.( m.m.c.m.U.D.D.a 1 v x 8 % > c.c.B.g.B.g.g.f.7 8 1 k 7 k | g.g.] r.f.g.v.4 f.8.g.+ x X 4 7 k [ f.f.8.",
"R.A.B.A.k 7 1 4 1 k c.c.B.c.c.c.B.m.c.c.B.q > 8 8 1 4 B.c.B.B.B.B.B.g.c.g.1 % 1 7 k H 9.9.f.c.c.g.g.8.9.8.f.8 8 8 x 8 r 8.8.9.7.",
"/.D.D.B.m.1 q 1 7 1 g.c.c.Z.Z.Z.c.c.c.B.D.q x x x > w.B.c.c.B.B.9.c.g.B.B.< 8 1 k 7 Z g.g.g.c.g.f.g.f.g.9.9.7 1 8 1 3 8.g.f.7.7.",
"/.c.B./.R.C k q k 7 z B.c.m.D.c.c.c.B.D.c.k k 1 k 4 c.c.B.c.c.c.g.g.g.D.c.j.1 % 8 8 1 g.c.g.g.g.g.8.c.v.8.< 1 % 7 + % 7.7.7.3.7.",
"/.^.B.D.D.q % > 1 x & A.Z.B.c.B.c.D.B.v.k 7 8 q 1 4 B.c.g.p.c.B.g.g.R B.g.d.4 v 1 > 1 4 f.g.8.c.9.9.g.g.c.1 8 1 8 > 1 8.9.f.7.3.",
"U.J c.c.A.Z.B.c.2 v 7 1 H.D.v.c.c.g.c.h 8 k 1 a x.v.g.g.c.1 w.c.c.( ~ c.c.f.f.c.D 7 x 8 7 8.8.f.g.f.9.9.1 1 8 1 -.8.8.7.f.7.1 3.",
"H *./.D.B.c.c.B.B.e.8 1 % 1 n A.!.f 8 1 % l v.c.B.c.v.v.c.1 7 e.^ / N v.f.B.8.g.v.f.8 8 % x , m.8.j.k > 8 1 . 8.8.8.7.8.8.o.f ; ",
"H ` c.B.v.c.c.B.B.v.- k 7 7 7 d.8 x 4 1 X v.f.c.c.g.v.f.v.2 % 3 D I G g.9.v.8.f.v.f.d.1 > k 1 1 r.8 8 1 1 , 7.8.8.3.7.3.8.7.o X ",
"~ b 4 3 4 , B.v.g.g.c.; % 4 d.g.f.7 q 6 u.f.g.f.f.2._ l P 8 1 7 n M 8 3 4 > r.8.8.7.8.-.1 1 > 7.8.5.X X 1 s.3.3...o.H z p d * % ",
"l 1 % 4 # d.8.d.7.v.8.< $ +.8.8.8.s.> 4 8.8.8.8.7.8.>.m n m l % H + ; > * 2.7.o.o.8.o.X.+ + O.3.o.7.,.+   3.4. .4.4.O.a n a F 4 "
};
