/* XPM */
static char *_deb48b6446f403cb8758130e1a24047wctb73OCXgpGk1XZ[] = {
/* columns rows colors chars-per-pixel */
"64 64 138 2 ",
"   c #66768D",
".  c #7B7D89",
"X  c #657991",
"o  c #6D7D94",
"O  c #6F7F98",
"+  c #79828B",
"@  c #6E8196",
"#  c #6E829B",
"$  c #728296",
"%  c #7D8593",
"&  c #798895",
"*  c #73859B",
"=  c #7A869B",
"-  c #76899E",
";  c #7A8A9D",
":  c #7787A0",
">  c #768AA2",
",  c #7B8CA3",
"<  c #768EA8",
"1  c #7C8EA9",
"2  c #7E91A6",
"3  c #7D91AA",
"4  c #818A91",
"5  c #838E9C",
"6  c #888E9C",
"7  c #899297",
"8  c #87939F",
"9  c #8A959C",
"0  c #90979F",
"q  c #808DA3",
"w  c #818EAA",
"e  c #888FAC",
"r  c #8292A5",
"t  c #8995A2",
"y  c #8D99A4",
"u  c #8394AA",
"i  c #8A95AB",
"p  c #8699AE",
"a  c #8A9AAC",
"s  c #939CA4",
"d  c #989FA5",
"f  c #939DAB",
"g  c #8A93B2",
"h  c #8699B1",
"j  c #8B9CB2",
"k  c #909EB8",
"l  c #96A1A5",
"z  c #95A1AC",
"x  c #9AA4AC",
"c  c #9EA8AE",
"v  c #8EA1B6",
"b  c #93A2B4",
"n  c #9BA6B1",
"m  c #9DAAB3",
"M  c #93A4BA",
"N  c #97A8BC",
"B  c #9BACBC",
"V  c #A3AAAE",
"C  c #A9AFAD",
"Z  c #ACB1AA",
"A  c #A2ACB4",
"S  c #A8ADB0",
"D  c #A3AEB9",
"F  c #ACB1B4",
"G  c #A6B2BB",
"H  c #ABB5BC",
"J  c #ACB9BF",
"K  c #B2B6B5",
"L  c #B2BABD",
"P  c #BCC1BE",
"I  c #AAB7C1",
"U  c #ADBAC3",
"Y  c #A5B8C9",
"T  c #B2BCC5",
"R  c #B8BDC3",
"E  c #B4C1C5",
"W  c #BDC2C4",
"Q  c #B7C2CA",
"!  c #BCC4CA",
"~  c #C6C5C1",
"^  c #C6C8C7",
"/  c #C3C9CD",
"(  c #CDCECD",
")  c #C0C9D0",
"_  c #CCD3D4",
"`  c #CFD4D8",
"'  c #D6DBD5",
"]  c #D5DBD9",
"[  c #DDDFDE",
"{  c #E1DDD2",
"}  c #DFE1D4",
"|  c #D7E0DF",
" . c #E5E3D6",
".. c #EBE5D7",
"X. c #E6E9D6",
"o. c #E9ECD7",
"O. c #E6E5DA",
"+. c #E9E6DB",
"@. c #E5E9DB",
"#. c #EBE9DD",
"$. c #DDE4E3",
"%. c #DEE9E5",
"&. c #E2E5E3",
"*. c #E6E5E0",
"=. c #EBE3E0",
"-. c #E8E7E2",
";. c #E1E8E1",
":. c #EBEBE1",
">. c #EDEAE1",
",. c #EAECE1",
"<. c #ECECE2",
"1. c #EFECE3",
"2. c #E8EAE5",
"3. c #E8EDE6",
"4. c #EFEFE7",
"5. c #E4E7E8",
"6. c #E3E9E9",
"7. c #E5E9EA",
"8. c #E3ECE9",
"9. c #E3EBEE",
"0. c #E6EBEE",
"q. c #EBEDE9",
"w. c #ECEFE8",
"e. c #F0ECE1",
"r. c #F2EFE6",
"t. c #EDF1E3",
"y. c #EEF1EA",
"u. c #EEF2EF",
"i. c #F2F0E4",
"p. c #F1F1E7",
"a. c #F4F2E6",
"s. c #F3F3EB",
"d. c #F4F1E8",
"f. c #EFF1F0",
"g. c #EFF3F6",
"h. c #F7F5F2",
"j. c #F7F8F7",
"k. c #FFFFFF",
/* pixels */
"; E T T / 4.4.4.4.+.>.D * #.>.#.4.+.] 2 +.#.+.+.+.+.o.g * u , n n , u * g o.+.+.#.+.#.+.2 ] #.e.#.>.#.* D >.+.<.4.4.4./ T T E ; ",
"b r Q D ! W <.<.4.+.4.u , 2 >.O.r.| , u :.#.+.<.<. .u v > r U n n U r > j 2  .<.<.+.#.:.u , | r.O.>.2 , u <.+.4.<.<.W ! D Q r b ",
"M u 3.s.4.<.4.#.:.r.O.> h - M e.) , * , ; O.>.+.+. .*.-.*.G x m m x G *.*.*. .+.+.>.O.; , * , ) e.M - h > O.r.:.#.4.<.4.s.3.u M ",
"r u q.4.s.4.4.:.+.>.u 2 > * , 2 , > > * r d +.#.+.#.+.+.+.T G T T G T +.+.+.#.+.#.+.d u * > > , 2 , * > 2 u >.+.:.4.4.s.4.q.u r ",
"0.j w.4.4.4.<.+.x * , r q :.:.<.<.#.! * p > t +.+.+.+.+. .f D  . .D f  .+.+.+.+.+.t > p * ! #.<.<.:.:.q r , * x +.<.4.4.4.w.j 0.",
"y.9.y.:.s.j M 1 * h M % <.#.<.>.+.+.+.@.1 b h , 2 a <.+.+.A  . . . .A +.+.<.a 2 , h b 1 o.#.+.+.>.<.#.<.% M h * 1 M j s.:.y.9.y.",
"s.s.s.:.4.u , h > * * +.>.>.+.#.a.+.+.+.[ r p b u , :.+.+.+.+.O.O.+.+.+.+.:., u v p r [ +.+.+.a.#.+.>.>.+.* * > h , u 4.:.s.s.s.",
"s.4.s.4.+.h p * u - q.<.+.:.4.#.>.#.+.#.#., > , v h A +.+.+.#.+.+.#.+.+.+.A h v , > , #.#.+.#.>.#.4.:.+.4.q.> u * p h +.4.s.4.s.",
"4.s.:.s.g.M , * > v +.<.p.>.>.4.<.<.+.e.O.8 r a u b r #.+.+.O.+.+.O.+.+.#.r b u a r 8 O.e.+.<.<.4.>.>.p.<.+.v > * , M g.s.:.s.4.",
"p.s.4.d.u M r r - a #.p.p.6.>.#.p.@.P r.+._ j N r j o s +.+.#.#.#.#.+.+.s o j r N j _ +.r.P @.p.#.>.6.p.p.#.a - r r M u d.4.s.p.",
"<.4.,.v u u u 2.:.+.+.>.+.> ;.#.+.A W O.r.+.#.-.t r u r 4 +.#.#.#.#.+.4 r u r t -.#.+.r.O.W A +.#.;.> +.>.+.+.:.2.u u u v ,.4.<.",
"z , p u , 5 <.+.p.+.+.p.p., @ 8.H x W +.+.+.<.o.+.o., , * - x +.+.x - * , , o.+.+.<.+.+.+.W x H 8.@ , p.p.+.+.p.+.<.5 , u p , z ",
", > , j k +.<.+.<.+.+.r.+.- u 2 Q T ^ >.O.#.>.#.+.#. .h p r * % % * r p h  .#.+.#.>.#.O.>.^ T Q 2 u - +.r.+.+.<.+.<.+.k j , > , ",
"r.u u r <.<.4.<.<.$.H G D r , > n D h * 2 j #. .#.+.#.& u u s +.+.s u u & #.+.#. .#.j 2 * h D n > , r D G H $.<.<.4.4.<.r u u r.",
"4.p.u , 4.s.+.<.4.:.] T G I r * I u u h , +.+.+.+.+.O.+.j A O.O.O.O.A j +.O.+.+.+.+.+., h u u I * r I G T ] +.<.<.+.s.4., u p.4.",
"4.s.#.b <.:.+.+.+.<.r.' I D D ; > 2 > h >.>.<.+.<.#.#.#.x +.O.O.O.O.+.x #.#.#.<.+.<.>.>.h > 2 > ; D D I ' r.<.+.+.+.:.<.b #.s.4.",
"s.4.$.r 4.4.<.4.:.+.+.- * 2 r U I U H A ;.#.#.+.+.+.#.#.h ..+.+.+.+...h #.#.+.+.+.#.#.;.A H U I U r 2 * - +.+.:.4.<.4.4.r $.4.s.",
"4.%.M , s.4.<.:.:. .* h * u E G , I D G T 2.#.+.#. .#.A u 1 +.+.+.+.1 u A #. .#.+.#.2.T G D I , G E u * h *  .:.:.<.4.s., M %.4.",
"_ 1 , 1 f.4.4.:.:.7 9 y 9 D m H @ - I L ! ! @.+.<.+.O.r > , w o.o.w , > r O.+.<.+.@.! ! L I - @ H m D 9 y 9 7 :.:.4.4.f.1 , 1 _ ",
"Y 2 p r > r.+.4.+.#.+.<.>.U T z j - ! #.#.#.<.+.+.O.% r r u > w w > u r r % O.+.+.<.#.#.#.! - j z T U >.<.+.#.+.4.+.r.> r p 2 Y ",
"p.q., p , , t.p.<.:.<.:.r.n n #.s , L >.+.O.O.#. .t , > u t +.o.o.+.t u > , t  .#.O.O.+.>.L , s #.n n 4.:.<.:.<.p.t., , p , q.p.",
"s.4.p.n u j > p z W :.<.<.m <.#.e.x W #.<.+.O.f , N - , o.#.<.O.O.<.#.o., - N , f O.*.<.#.W x e.#.<.m <.<.:.W z p > j u n p.4.s.",
"s.4.4.p.j , r u * , +.#.+.>.+.#.#.#.:.#.+.5 , B u r u O. .O.#.+.+.#.O. .O.u r u B , 5 +.#.:.#.#.#.+.>.+.#.+., * u r , j p.4.4.p.",
"<.s.<.+.3.j , > u 2 <.+.<.#.+.O.<.#.<.e.+., p j r u t +.+.O. .o.o. .O.+.+.t u r j p , +.e.<.#.<.O.+.#.<.+.<.2 u > , j 3.+.<.s.<.",
":.p.s.p.4.u 2 p , > s +.+.#.e.<.#.<.e.O.o.2 p r , h +.+.+.+.+.+.+.+.+.O.+.+.h , r p 2 o.O.e.<.+.<.e.#.+.+.s > , p 2 u 4.p.s.p.:.",
"<.p.#.4.<.u 2 p , , > O.>.<.#.+.+.>.#.+.f u h r u p #.#.+.} +.+.+.+.} +.+.#.p u 2 h u f +.#.#.+.+.#.<.>.@.> , , p 2 u <.4.<.p.<.",
"<.H p.+.:.:.:.d j 2 , 3 o.+.#.#.#.+.O.m 2 2 u b l @.+.+.+., O. . .O., +.+.+.@.l b u 2 2 m O.+.#.#.#.+.o.3 , 2 j d :.:.:.:.p.H <.",
"A G 4.p.:.<.+.<.+., h j u ; <.+. .&.r h * , ;.+.#.#.<.+.+., < @.@.< , +.+.<.#.#.+.;., * p r &. .+.<.; u j h , +.<.+.<.:.p.4.G A ",
"! T 4.p.<.p.4.<.+.+.> , j > , 7 2 > * , , X.+.<.#.#.<.+.+.p > * * > p +.+.<.#.#.<.+.X., , * > 2 7 , > j , > +.+.<.4.p.<.p.4.T ! ",
"c D u h , 2 <.+.4.#.<.1 > , V k.k.> j , 5 #.O.O.+.Z L ! F p * @ @ * p F ! L Z +.O.O.#.5 , j > k.k.V , > 1 <.#.4.+.<.2 , h u D c ",
"I h , p u +.:.<.<.<.+.2 , F k.k.k.k.3 * +.#.p.+.#.+.S H m I , * * , I m H S +.#.+.p.#.#.* 3 k.k.k.k.F , 2 +.<.<.<.:.+.u p , h I ",
"b r , , <.p.+.<.<.#.#.H L k.k.k.k.k.k., <.+.+.+.#.#.+.V H D f * * f D H V +.#.#.+.+.+.<., k.k.k.k.k.k.L H #.#.<.<.+.p.<., , r b ",
"x J D W <.<.<.4.+.<.+./ k.k.k.k.k.k.k.a +.+.+.#.+.<.#.#.- u , * * , u ; #.+.<.+.#.+.+.+.a k.k.k.k.k.k.k./ +.<.+.4.<.<.<.W D J x ",
"N x n ! S +.>.<.+.+.+.& 3 k.k.k.k.k.u * #.+.+.+.#.e.{ v > > r z z r > > v { e.#.+.+.o.#.* u k.k.k.k.k.3 & +.+.+.<.>.+.S ! n x N ",
"u , F T ! H <.e.<.e.e.# 2 , k.k.k.3 , * 3.#.+.O.+. .- , h , H G G H , h , -  .+.+.+.#.3.* , 3 k.k.k., 2 # e.e.<.e.<.H ! T F , u ",
"j h 4.:.4.:.4.>.#.+.% , * 2 , k., u * * $  .+.O.#.#.#.o.#.n T n n T n #.o.#.#.#.O.+. .$ * * u , k., 2 * , % +.#.#.4.:.4.:.4.h j ",
"h , :.4.+.<.#.<.+.D , u * o H k./ u u - r r o.#.#.o.#. .+.D D F F D D +. .#.o.#.#.o.r r - u u / k.H o * u , D +.<.#.<.+.4.:., h ",
">.j 4.<.+.<.e.2.u p * p j.k.k.k.k.k.k.* * , - :.O.#.o.+.<.x C +.+.C x <.+.o.#.O.:.- , * * k.k.k.k.k.k.j.p * p u 2.e.<.+.<.4.j >.",
"p.r.s.<.<.- * , , 2 u k.k.k.k.k.k.k.k.k., * h , - u +.+. .0 #.o.o.#.0  .+.O.u - , h * , k.k.k.k.k.k.k.k.k.u 2 , , * - <.<.s.r.p.",
"<.+.<.4.>.3 > , , , t k.k.k.k.k.k.k.k.k.k.> , h p ; #.+.#.+. .+.+. .+.#.O.+.; p h , > k.k.k.k.k.k.k.k.k.k.t , , , > 3 >.4.<.+.<.",
"4.+.p.4.:.h , r * r k.k.k.k.k.k.k.k.k.k.k.> , * j r V #. .O. .+.+. .O. .#.V r j * q > k.k.k.k.k.k.k.k.k.k.k.r * r , h :.4.s.+.4.",
"4.4.+.<.5 > , r u * k.k.k.k.k.k.k.k.k.k.k.& j * * , >  .O. .+. . .+. .+. .> , * * j & k.k.k.k.k.k.k.k.k.k.k.* u r , > 5 4.+.4.4.",
"<.r.r.R , - , > h ; k.j.k.+ k.k.k.k.j.k.k.% , r 2 u , *  . .+.+.+.+. . .* , u 2 r , 4 k.k.j.k.k.k.k.+ k.j.k.; h > , - , R r.r.<.",
"p.p.> * r , L k.k.k.k.k.k.* x k.k.T k.k.k.k.k.k.5.> * u * O.#. . .#.O.* u * > 5.k.k.k.k.k.k.T k.k.x * k.k.k.k.k.k.L , r * > p.p.",
"2 , r - , k.k.k.k.k.k.k.k., * s m x 3.k.k.k.k.k.k.k.- h ; , @ u u @ , ; h - k.k.k.k.k.k.k.3.x m s * , k.k.k.k.k.k.k.k., - r , 2 ",
"q r * , ` k.k.k.k.k.s.k.k., , * m H u.k.k.k.k.k.k.k.k.* u u # k.k.# u u * k.k.k.k.k.k.k.k.u.H m * , , k.k.s.k.k.k.k.k.` , * r q ",
"#.i r u k.k.k.k.k.k.n s m B 2 u t b o > M f k.k.k.k.k.5 r , k.k.k.k., r 5 k.k.k.k.k.f M > o b t u 2 B m s n k.k.k.k.k.k.u r i #.",
"<.+.e & k.k.k.k.k.k.k.H n z B r b r - u 6 k.k.k.k.k.k.k.h k.k.k.k.k.k.h k.k.k.k.k.k.k.6 u - r b r B z n H k.k.k.k.k.k.k.= e +.<.",
"4.+.=.R k.k.k.k.k.k.k.k.b b a a b ; a t k.k.k.k.k.k.k.k.k.k.k.k.k.k.k.k.k.k.k.k.k.k.k.k.t a ; b a a b b k.k.k.k.k.k.k.k.R =.+.<.",
"<.+.w ; k.k.k.k.k.k.k.h # o & G q I H J P k.k.k.k.k.k.k.@ k.k.k.k.k.k.@ k.k.k.k.k.k.k.P J H I q G & o # h k.k.k.k.k.k.k.; w o.<.",
"e.u u 1 k.k.k.k.k.k., * u r J D - i U T G ( k.k.k.k.k.; h * k.k.k.k.* h ; k.k.k.k.k.( G T U i - D J r u * , k.k.k.k.k.k.1 u u e.",
"p ; * 2 k.k.k.k.k.k.k.k.k.H D y - , k.k.k.k.k.k.k.k.k.> , , , k.k., , , > k.k.k.k.k.k.k.k.k., - y D H k.k.k.k.k.k.k.k.k.2 * ; p ",
"u , p * 2 k.k.k.k.k.k.k.k.U Q c - @ k.k.k.k.k.k.k.k.r r r r , # # , r r r r k.k.k.k.k.k.k.k.@ - c Q U k.k.k.k.k.k.k.k.2 * p , u ",
"k.k.5 h v j 9 k.k.k.k.k.k.y K k.k.h k.k.k.k.k.k.k.p , r - k.k.k.k.k.k.- r , p k.k.k.k.k.k.k.h k.k.K y k.k.k.k.k.k.9 j v h 5 k.k.",
"k.k.k.k.j , j > o , k.k.k.F k.k.k.k.k.k.k.9 * p u , o $ k.k.k.k.k.k.k.k.$ o , u p * 9 k.k.k.k.k.k.k.F k.k.k., o > j , j k.k.k.k.",
"k.k.k.k.r > * ; * r k.k.k.k.k.k.k.k.k.k.k.2 $ , , * ; k.k.k.k.k.k.k.k.k.k.; * , , $ 2 k.k.k.k.k.k.k.k.k.k.k.r * ; * > r k.k.k.k.",
"k.k.k.k.k.* 2 * > * k.k.k.k.k.k.k.k.k.k.k.2 u u u $ _ k.k.k.k.k.k.k.k.k.k._ $ u u u 2 k.k.k.k.k.k.k.k.k.k.k.* > * 2 * k.k.k.k.k.",
"k.k.k.k.k.h r 2 r > y k.k.k.k.k.k.k.k.k.k.r 2 * r ; k.k.k.k.k.k.k.k.k.k.k.k.- r * 2 r k.k.k.k.k.k.k.k.k.k.y > r 2 r h k.k.k.k.k.",
"k.k.k.k.k.2 o $ * u O k.k.k.k.k.k.k.k.k.r > , 2 * ; k.k.k.5.k.k.k.k.5.k.k.k.; * 2 , > r k.k.k.k.k.k.k.k.k.O u * $ o 2 k.k.k.j.k.",
"k.c k.k.k.k.k.k.= p > * k.k.k.k.k.k.k.w , u * 9 k.k.k.k.k.* _ k.k._ * k.k.k.k.k.9 * u > w k.k.k.k.k.k.k.* > p = k.k.k.k.k.k.c k.",
"x R k.k.k.k.k.k.k.] , * o * s k.7.q , * o i k.k.k.k.k.k.k.* > ` ` > * k.k.k.k.k.k.k.i o * , q 7.k.s * o * , ` k.k.k.k.k.k.k.R x ",
"x J k.k.k.k.k.k.k.k.+ r > > > k., u - *   k.k.k.k.k.k.k.k.* o - - o * k.k.k.k.k.k.k.k.  * - u , k.> > > r + k.k.k.k.k.k.k.k.J x ",
"A a ; - ; % k.k.k.k.k.@ o ; k.k.k.> 2 : k.k.k.k.k.( H y n , * > > * , n y H ( k.k.k.k.k.: 2 > k.k.k.; o @ k.k.k.k.k.% ; - ; a A ",
"y * o ; . k.k.k.>.k.k.= X #.k.k.k.k.$ ; >.j.j.>.O.>.~ d s d t o o t d s d ~ >.O.>.j.j.e.; $ k.k.k.k.#.X = h.k.k.k.j.k.. ; o * y "
};
